<svg width="136" height="60" viewBox="0 0 136 60" fill="none" xmlns="http://www.w3.org/2000/svg">
<path fill-rule="evenodd" clip-rule="evenodd" d="M113.98 51.8822C113.901 51.9181 113.822 51.954 113.736 51.9828C113.506 52.069 113.276 52.1839 113.046 52.2989C113.017 52.3132 112.981 52.3276 112.945 52.342C112.909 52.3563 112.874 52.3707 112.845 52.3851C100.862 57.1264 85.0574 60 67.7299 60C53.5345 60 40.3735 58.0747 29.4827 54.7701L29.2241 54.6839C11.5805 49.2529 0 40.2299 0 30C0 15.1724 24.2241 2.87356 56.1207 0.45977C56.1494 0.431035 56.1781 0.431034 56.2069 0.431034H56.3793C60.0862 0.143678 63.8793 0 67.7586 0C71.6379 0 75.431 0.143678 79.1379 0.431034L79.339 0.431034C79.3534 0.431034 79.375 0.438219 79.3965 0.445404C79.4181 0.452587 79.4396 0.45977 79.454 0.45977C86.3505 0.977012 92.9023 1.98276 98.908 3.36207C98.9798 3.37644 99.0589 3.39799 99.1379 3.41954C99.2169 3.44109 99.2959 3.46264 99.3678 3.47701C99.5187 3.51474 99.6641 3.54697 99.8065 3.57851C99.9893 3.61903 100.167 3.65842 100.345 3.7069L101.034 3.87931L102.069 4.13793L102.414 4.22414C105.862 5.14368 109.138 6.2069 112.155 7.35632C114.31 8.18965 116.408 9.10919 118.477 10.1437C120.632 11.2069 122.615 12.3563 124.397 13.5632C124.54 13.6638 124.691 13.7716 124.842 13.8794C124.993 13.9871 125.144 14.0949 125.287 14.1954C131.724 18.7644 135.46 24.1954 135.46 30C135.46 38.1034 128.161 45.4598 116.351 50.8621C116.307 50.8908 116.257 50.9124 116.207 50.9339C116.157 50.9555 116.106 50.977 116.063 51.0057C115.948 51.0632 115.826 51.1135 115.704 51.1638C115.582 51.2141 115.46 51.2644 115.345 51.3218C115.259 51.3506 115.18 51.3865 115.101 51.4224C115.022 51.4583 114.942 51.4943 114.856 51.523C114.626 51.6092 114.425 51.6954 114.224 51.7816C114.138 51.8103 114.059 51.8463 113.98 51.8822ZM10.6322 29.454C10.8908 29.4828 11.0345 29.6264 11.0632 29.8851C11.092 30.3736 10.9483 30.5172 10.3448 30.546H1.55172H1.14943V30.8333C1.2069 31.954 1.43678 33.0747 1.81034 34.1379C2.67241 36.7241 4.1954 38.908 6.06322 40.8908C8.50575 43.477 11.3793 45.4885 14.4253 47.2701C14.5402 47.3563 14.6839 47.3851 14.8276 47.3851L25 47.3851H25C25.0862 47.3851 25.1437 47.3851 25.2874 47.3563C25.22 47.289 25.1625 47.2414 25.1149 47.2019C25.0813 47.174 25.0525 47.1502 25.0287 47.1264C24.5879 46.6964 24.139 46.2703 23.6896 45.8437C22.938 45.1303 22.1849 44.4155 21.4655 43.6782C21.0196 43.212 20.6166 42.6886 20.2161 42.1686C20.0488 41.9514 19.882 41.7347 19.7126 41.523C19.4828 41.2356 19.5402 40.9483 19.8276 40.8333C20.1437 40.7184 20.5172 40.8046 20.7184 41.092C22.4425 43.4483 24.5402 45.4598 26.8678 47.2126C27.0115 47.3276 27.1839 47.3851 27.3563 47.3851H46.523C46.5804 47.3851 46.6307 47.3779 46.681 47.3707C46.7313 47.3635 46.7816 47.3563 46.8391 47.3563C46.799 47.2962 46.7729 47.2361 46.751 47.1857C46.7415 47.1639 46.7328 47.1438 46.7241 47.1264C46.4773 46.6206 46.22 46.1253 45.9634 45.6316C45.6224 44.9753 45.2828 44.3217 44.9712 43.6494C44.7488 43.144 44.5549 42.6243 44.3594 42.1004C44.277 41.8797 44.1943 41.6582 44.1092 41.4368C43.9942 41.1207 44.1092 40.8908 44.3678 40.8333C44.8276 40.7184 45.0574 40.8333 45.2011 41.2644C45.9195 43.3046 46.8678 45.2299 47.9885 47.069C48.1034 47.2989 48.2471 47.3851 48.5345 47.3851C61.2914 47.3563 74.0483 47.3563 86.8052 47.3563H86.8103C87.0689 47.3563 87.2126 47.2701 87.3563 47.0402C88.5057 45.2011 89.4252 43.2759 90.1436 41.2356C90.2873 40.8333 90.6034 40.6897 91.0057 40.8333C91.2931 40.9483 91.3505 41.1782 91.2069 41.5805C90.5172 43.477 89.6839 45.2874 88.6781 47.0115C88.6458 47.0599 88.6136 47.1174 88.5762 47.1839C88.547 47.2359 88.5148 47.2933 88.477 47.3563H88.8793H107.902C108.075 47.3563 108.305 47.3276 108.448 47.2126C109.856 46.1207 111.207 44.9713 112.414 43.6494C112.983 43.0141 113.536 42.3453 114.085 41.6813C114.256 41.4744 114.427 41.268 114.598 41.0632C114.799 40.8333 115.316 40.7471 115.546 40.9195C115.776 41.092 115.747 41.2931 115.488 41.6667C114.253 43.3333 112.845 44.8563 111.293 46.2356C110.891 46.5805 110.488 46.9253 110.029 47.3276C110.144 47.3563 110.201 47.3563 110.23 47.3563L120.575 47.3563C120.718 47.3563 120.862 47.2988 120.977 47.2414C121.81 46.7529 122.672 46.2356 123.477 45.6897C126.063 43.9655 128.419 41.9828 130.402 39.569C132.04 37.5287 133.305 35.2874 133.851 32.7011C133.94 32.2699 133.997 31.8273 134.054 31.3736C134.089 31.1017 134.124 30.8259 134.167 30.546H133.678H124.971H124.713C124.454 30.5172 124.31 30.3736 124.282 30.1149C124.253 29.6264 124.397 29.454 124.885 29.454H133.736H134.138C134.109 28.1897 133.851 27.0115 133.477 25.8621C132.615 23.2759 131.092 21.092 129.224 19.1092C126.782 16.523 123.908 14.4828 120.833 12.7011C120.718 12.6149 120.546 12.5862 120.402 12.5862L110.287 12.5862C110.25 12.5862 110.212 12.5917 110.17 12.5979C110.115 12.6058 110.052 12.6149 109.971 12.6149C110.019 12.6624 110.066 12.7012 110.109 12.736C110.144 12.7644 110.175 12.7903 110.201 12.8161C110.552 13.1504 110.903 13.4798 111.253 13.8079C112.105 14.608 112.949 15.4001 113.764 16.2356C114.342 16.8382 114.853 17.5065 115.357 18.164C115.429 18.2591 115.502 18.3539 115.575 18.4483C115.805 18.7356 115.747 19.023 115.46 19.1379C115.172 19.2529 114.77 19.1379 114.569 18.8793C112.816 16.523 110.747 14.5115 108.419 12.7586C108.276 12.6724 108.075 12.5862 107.902 12.5862L88.7356 12.5862C88.6925 12.5862 88.6494 12.5934 88.6063 12.6006C88.5632 12.6078 88.5201 12.6149 88.477 12.6149C88.5461 12.7418 88.6153 12.868 88.6843 12.994C89.131 13.8097 89.5691 14.6096 89.9425 15.431C90.3855 16.3431 90.7576 17.3024 91.1231 18.2447C91.1606 18.3415 91.1981 18.4381 91.2356 18.5345C91.3793 18.8793 91.2643 19.1092 90.977 19.1667C90.5172 19.2529 90.2873 19.1379 90.1436 18.7069C89.4252 16.6667 88.477 14.7126 87.3563 12.8736C87.2413 12.6437 87.0977 12.5575 86.839 12.5575L48.5632 12.5575C48.3046 12.5575 48.1896 12.6724 48.0459 12.8736C46.8965 14.7414 45.9482 16.6954 45.2299 18.7356C45.0862 19.1379 44.7701 19.2816 44.3678 19.1379C44.1092 19.023 44.0517 18.8218 44.1954 18.3908C44.885 16.4943 45.7184 14.6552 46.7528 12.9023C46.7714 12.8466 46.8019 12.791 46.8367 12.7275C46.8558 12.6928 46.8762 12.6557 46.8965 12.6149C46.8103 12.5862 46.7816 12.5862 46.7241 12.5862L27.3563 12.5862C27.2126 12.5862 27.0689 12.6437 26.954 12.7299C25.2299 14.0517 23.6207 15.4885 22.2126 17.1264C21.8678 17.5287 21.5485 17.931 21.2292 18.3333C21.0696 18.5345 20.91 18.7356 20.7471 18.9368C20.546 19.1954 20.0287 19.2529 19.7988 19.0805C19.569 18.908 19.569 18.7069 19.8276 18.3621C20.8333 16.9828 21.9828 15.6897 23.2184 14.5115C23.8396 13.9173 24.4861 13.3485 25.1581 12.7574C25.2011 12.7196 25.2442 12.6817 25.2874 12.6437C25.2258 12.6437 25.1724 12.6354 25.1229 12.6278C25.08 12.6211 25.04 12.6149 25 12.6149L14.8276 12.6149C14.6839 12.6149 14.5115 12.6724 14.3678 12.7586C14.138 12.9013 13.906 13.0439 13.6731 13.1871C13.0612 13.5633 12.4426 13.9437 11.8391 14.3391C9.28161 16.0632 6.89655 18.0172 4.94253 20.431C3.27586 22.4425 2.01149 24.7126 1.46552 27.2989C1.37611 27.7459 1.32008 28.1818 1.26282 28.6274C1.22806 28.8978 1.19284 29.1718 1.14943 29.454H1.63793H10.3161H10.6322ZM106.379 11.2644C104.195 9.82759 101.925 8.56322 99.5689 7.5C91.9827 4.05172 83.9655 2.21264 75.6609 1.46552C75.704 1.49425 75.7543 1.5158 75.8046 1.53736C75.8548 1.55891 75.9051 1.58046 75.9482 1.6092C76.2817 1.7714 76.6179 1.92795 76.9534 2.08417C77.6878 2.42611 78.4188 2.76644 79.1092 3.16092C82.5862 5.20115 85.3735 7.95977 87.6436 11.2931C87.7873 11.4655 87.931 11.5517 88.1609 11.5517L106.379 11.5517H106.695C106.712 11.5352 106.719 11.5282 106.722 11.5197C106.724 11.5135 106.724 11.5065 106.724 11.4943C106.609 11.4368 106.494 11.3506 106.379 11.2644ZM89.2959 2.65805C89.2744 2.65086 89.2528 2.64368 89.2241 2.64368V2.70115C89.2528 2.70115 89.3103 2.70115 89.3678 2.67241C89.3391 2.67241 89.3175 2.66523 89.2959 2.65805ZM90.6338 2.88174C90.2341 2.82459 89.8318 2.76707 89.4252 2.70115C89.466 2.72151 89.5031 2.74186 89.5378 2.76094C89.6012 2.79573 89.6569 2.82627 89.7126 2.84483C92.0977 3.50575 94.454 4.25287 96.7816 5.17241C100.948 6.81034 104.885 8.82184 108.506 11.4655C108.621 11.5517 108.793 11.5805 108.937 11.5805L118.448 11.5805H118.707C118.546 11.4195 118.385 11.3322 118.224 11.2448C118.184 11.223 118.144 11.2012 118.103 11.1782C113.592 8.90805 108.851 7.18391 103.994 5.8046C100.23 4.71264 96.408 3.87931 92.5574 3.18966C91.9185 3.06541 91.2795 2.97406 90.6338 2.88174ZM86.408 11.408C84.9712 9.39655 83.3333 7.58621 81.3793 6.03448C76.6954 2.32759 71.408 0.603448 65.4023 1.23563C62.6149 1.55172 60 2.38506 57.5574 3.73563C54.4827 5.4023 51.9253 7.67241 49.7701 10.431C49.5242 10.7261 49.2993 11.0422 49.0595 11.3793C49.0191 11.4362 48.9782 11.4937 48.9367 11.5517L86.4942 11.5517C86.4605 11.5181 86.4466 11.4844 86.4351 11.4565C86.4269 11.4368 86.4199 11.4199 86.408 11.408ZM47.8448 11.2644C50.7471 7.04023 54.454 3.76437 59.1954 1.75287L59.7988 1.49425C58.3333 1.58046 56.8678 1.75287 55.4023 1.95402C51.7816 2.47126 48.1896 3.21839 44.6839 4.25287C39.5977 5.74713 34.7701 7.72988 30.2586 10.5172C29.7126 10.8621 29.2241 11.1782 28.7069 11.523C28.7069 11.5374 28.714 11.5517 28.7212 11.5661C28.7284 11.5805 28.7356 11.5948 28.7356 11.6092H29.1092L47.1839 11.6092C47.5 11.6092 47.6724 11.523 47.8448 11.2644ZM46.1638 2.67241C46.1422 2.6796 46.1207 2.68678 46.0919 2.70115H46.2356V2.64368C46.2069 2.65805 46.1853 2.66523 46.1638 2.67241ZM33.4482 7.47126C37.385 5.48851 41.523 3.96552 45.7758 2.81609C45.862 2.78736 45.9482 2.75862 46.0632 2.72989C45.431 2.81609 44.8276 2.9023 44.2241 2.98851C39.7413 3.7069 35.3161 4.68391 30.9482 5.94828C26.2356 7.32759 21.6379 9.02299 17.2414 11.2356C17.1552 11.2787 17.0618 11.329 16.9684 11.3793C16.875 11.4296 16.7816 11.4799 16.6954 11.523C16.7816 11.5805 16.8391 11.5805 16.9253 11.5805H26.523C26.6954 11.5805 26.8678 11.4943 26.9827 11.408C29.023 9.91379 31.1781 8.62069 33.4482 7.47126ZM26.4655 48.3908L16.9828 48.3908H16.9827C16.8965 48.3908 16.8103 48.3908 16.6667 48.3621C16.6751 48.3789 16.681 48.3933 16.686 48.4052C16.6979 48.4339 16.7038 48.4483 16.7241 48.4483C16.8678 48.5345 17.0115 48.6207 17.1839 48.7069C21.7241 51.0057 26.4942 52.7299 31.3793 54.1379C35.1436 55.2299 38.9655 56.0632 42.8448 56.7529C43.4891 56.8748 44.1229 56.965 44.7589 57.0556C45.1724 57.1144 45.5868 57.1735 46.0057 57.2414C45.9708 57.2297 45.9359 57.2134 45.899 57.1961C45.8449 57.1708 45.7867 57.1435 45.7184 57.1264C43.2758 56.4655 40.8908 55.6897 38.5345 54.7701C34.4253 53.1609 30.5172 51.1494 26.9253 48.5345C26.8103 48.4195 26.6092 48.3908 26.4655 48.3908ZM29.023 48.6782C31.7816 50.5172 34.7126 52.0402 37.7586 53.3046C42.3276 55.2011 47.0402 56.523 51.8678 57.4713C54.4827 57.9598 57.1264 58.3046 59.7701 58.5057C59.727 58.477 59.6767 58.4555 59.6264 58.4339C59.5761 58.4124 59.5258 58.3908 59.4827 58.3621C59.1493 58.1999 58.8131 58.0433 58.4776 57.8871C57.7432 57.5452 57.0122 57.2048 56.3218 56.8103C52.8161 54.7701 50.0287 51.9828 47.7586 48.6494C47.6436 48.4483 47.5287 48.3908 47.2988 48.3908H28.9942C28.9566 48.3908 28.9135 48.3963 28.8649 48.4025C28.8022 48.4104 28.7304 48.4195 28.6494 48.4195C28.7216 48.4677 28.7787 48.5108 28.8291 48.5489C28.8991 48.6017 28.9562 48.6448 29.023 48.6782ZM46.1638 57.2845C46.1853 57.2917 46.2069 57.2988 46.2356 57.2988V57.2701H46.0919C46.1207 57.2701 46.1422 57.2773 46.1638 57.2845ZM49.2241 48.8218C50.4023 50.4598 51.7241 51.9253 53.2471 53.2471C57.0689 56.523 61.408 58.5057 66.4367 58.8218C69.5977 59.023 72.6436 58.5057 75.5747 57.3276C80.0287 55.4885 83.5344 52.5 86.3218 48.6207C86.3566 48.5859 86.3809 48.5406 86.4074 48.4911C86.4246 48.4588 86.4428 48.4248 86.4655 48.3908L48.9942 48.3908V48.477C49.0373 48.5345 49.0732 48.5919 49.1092 48.6494C49.1451 48.7069 49.181 48.7644 49.2241 48.8218ZM87.4425 48.9655C84.5977 53.046 80.977 56.2069 76.3505 58.1897C76.1207 58.3046 75.8908 58.3908 75.6321 58.477C75.6609 58.5057 75.6609 58.5345 75.6609 58.5632C76.2452 58.4866 76.8294 58.4132 77.4137 58.3397C78.5823 58.1929 79.7509 58.046 80.9195 57.8736C84.9425 57.2988 88.8793 56.3793 92.7586 55.1149C97.5287 53.5632 102.069 51.523 106.264 48.7644C106.351 48.7069 106.43 48.6494 106.509 48.592C106.588 48.5345 106.667 48.477 106.753 48.4195C106.58 48.3621 106.437 48.3621 106.293 48.3621C104.332 48.3621 102.367 48.3653 100.4 48.3684C96.4602 48.3748 92.5117 48.3812 88.5632 48.3621C88.0459 48.3621 87.7298 48.5345 87.4425 48.9655ZM89.2959 57.2989C89.3175 57.2917 89.3391 57.2845 89.3678 57.2701C89.5115 57.2701 89.6264 57.2701 89.7701 57.2414C90.9195 57.069 92.0689 56.8678 93.1896 56.6667C97.7011 55.8621 102.126 54.8276 106.494 53.4483C110.517 52.1839 114.454 50.6609 118.247 48.7356C118.356 48.6734 118.456 48.6196 118.567 48.5605C118.66 48.5105 118.761 48.4567 118.879 48.3908C118.678 48.3621 118.621 48.3621 118.534 48.3621L108.965 48.3621C108.793 48.3621 108.621 48.4483 108.477 48.5345C108.126 48.7661 107.776 48.9998 107.428 49.2334C106.521 49.8403 105.618 50.4455 104.684 51.0057C100 53.7644 94.9712 55.6897 89.7413 57.1264C89.6813 57.1415 89.629 57.1643 89.5683 57.1909C89.5127 57.2152 89.4501 57.2427 89.3678 57.2701H89.2241V57.3276C89.2528 57.3132 89.2744 57.306 89.2959 57.2989ZM83.8797 36.8391C82.6729 36.8391 81.6384 36.4655 80.92 35.431C80.4889 34.8276 80.3453 34.1379 80.3453 33.4195C80.3453 32.6639 80.3421 31.9051 80.3389 31.1452C80.3325 29.6222 80.3261 28.0949 80.3453 26.5805C80.374 24.7989 81.2648 23.6207 82.8165 23.2471C83.1614 23.1609 83.5637 23.1322 83.9372 23.1322H89.7418C90.3932 23.1322 91.0445 23.129 91.6958 23.1258C92.9985 23.1194 94.3012 23.113 95.6039 23.1322C96.0349 23.1322 96.4947 23.1897 96.9257 23.3046C98.2476 23.7069 99.1384 24.8563 99.1671 26.2931C99.1958 28.7644 99.1958 31.2356 99.1671 33.7069C99.1384 35.4598 97.8165 36.7529 96.0349 36.8391H95.6326H83.8797ZM88.1552 27.7963L88.1548 27.797C87.7185 28.5126 87.2614 29.2626 86.9545 29.7701C86.6384 30.3161 86.466 30.9195 86.5522 31.523C86.6958 33.1609 88.1039 34.3966 89.828 34.4253C89.9204 34.4137 90.022 34.4115 90.1255 34.4092C90.2795 34.4057 90.4376 34.4022 90.5751 34.3678C92.6728 33.9081 93.9085 31.5805 92.5866 29.5977C92.1748 28.9628 91.4659 27.7849 90.9309 26.896L90.9305 26.8953C90.5697 26.2959 90.2882 25.8281 90.2303 25.7471C89.943 25.3736 89.6843 25.3736 89.397 25.7471C89.3631 25.8148 88.7808 26.7701 88.1552 27.7963ZM58.3623 36.7816H56.2646C55.6612 36.7816 55.6324 36.7529 55.6324 36.092V29.7126V23.6782C55.6324 23.1897 55.6899 23.1322 56.1784 23.1322C56.552 23.1322 56.9255 23.1354 57.2991 23.1386C58.0462 23.145 58.7933 23.1513 59.5405 23.1322C59.914 23.1322 60.1152 23.2759 60.3163 23.5632C62.3566 26.6954 64.4255 29.8276 66.4945 32.9598C66.7531 33.3621 66.868 33.3621 67.1554 32.9598C69.2244 29.8563 71.2646 26.7529 73.3048 23.6207C73.5347 23.2759 73.7933 23.1609 74.1956 23.1609C74.9417 23.18 75.675 23.1737 76.4126 23.1673C76.7829 23.1641 77.1543 23.1609 77.529 23.1609C77.96 23.1609 78.0175 23.2184 78.0175 23.6494V36.2931C78.0175 36.7241 77.96 36.7816 77.5577 36.7816H75.2301C74.7991 36.7816 74.7416 36.7241 74.7416 36.2931V27.6724V27.2701C74.7272 27.2557 74.7129 27.2486 74.6985 27.2414C74.6841 27.2342 74.6698 27.227 74.6554 27.2126C74.616 27.252 74.5767 27.288 74.5385 27.323L74.5382 27.3232C74.465 27.3901 74.3959 27.4532 74.3393 27.5287C73.6929 28.5056 73.0536 29.4825 72.4143 30.4593C71.7749 31.4365 71.1354 32.4136 70.4887 33.3908C70.1726 33.8937 69.8421 34.3966 69.5116 34.8996C69.1812 35.4024 68.8508 35.9052 68.5347 36.408C68.3336 36.6954 68.1037 36.8103 67.7589 36.8103C67.1841 36.7816 66.5807 36.7816 66.006 36.8103C65.575 36.8391 65.3163 36.6667 65.0864 36.3218C63.7082 34.1709 62.2995 32.0351 60.8936 29.9034C60.365 29.1019 59.8367 28.301 59.3106 27.5C59.2244 27.3851 59.1094 27.2989 58.9945 27.2126C58.9658 27.2126 58.937 27.2414 58.9083 27.2701V27.6724V36.2356C58.9083 36.7529 58.8795 36.7816 58.3623 36.7816ZM102.155 36.7816H104.453C104.942 36.7816 104.971 36.7529 104.971 36.2356V27.2127V26.6954L105.026 26.7188C105.198 26.7926 105.326 26.8471 105.43 26.9253C105.732 27.1837 106.026 27.4421 106.32 27.7005L106.321 27.7007L106.321 27.7009L106.321 27.7012L106.322 27.7014L106.322 27.7016L106.322 27.7019C106.616 27.9602 106.911 28.2186 107.212 28.477C108.735 29.8132 110.258 31.1565 111.781 32.4999L111.783 32.502C113.306 33.8447 114.828 35.1875 116.35 36.523C116.494 36.6667 116.724 36.7816 116.925 36.7816C117.399 36.796 117.88 36.796 118.365 36.796C118.85 36.796 119.339 36.796 119.827 36.8104C120.143 36.8104 120.258 36.6667 120.258 36.3506V23.6494C120.258 23.2759 120.172 23.2184 119.798 23.2184H117.499C117.011 23.2184 116.953 23.2759 116.953 23.7644V32.8448V33.3333C116.859 33.2794 116.777 33.2445 116.705 33.2137C116.624 33.1788 116.555 33.1492 116.494 33.1035L110.804 28.1035C109.942 27.342 109.08 26.5877 108.218 25.8333C107.356 25.079 106.494 24.3247 105.632 23.5632C105.373 23.3333 105.114 23.2471 104.798 23.2471C104.223 23.2663 103.634 23.2599 103.05 23.2535H103.05H103.05H103.05H103.05H103.05H103.049C102.759 23.2503 102.47 23.2471 102.183 23.2471C101.781 23.2471 101.695 23.3333 101.695 23.7069V36.3793C101.695 36.6954 101.781 36.7816 102.155 36.7816ZM36.4079 36.638C34.9712 36.3219 34.1091 35.3161 33.9941 33.8506C33.9654 33.592 33.9367 33.3334 33.9079 33.046V23.7357C33.9079 23.1897 33.9367 23.161 34.4827 23.161H36.6091C37.1551 23.161 37.1838 23.1897 37.1838 23.7357V32.7299V33.161C37.2125 33.7069 37.4999 33.9943 38.0459 34.0518C38.247 34.0805 38.4194 34.0805 38.6206 34.0805H48.0746C49.3102 34.0805 49.5401 33.8506 49.5401 32.6437V23.7644C49.5401 23.161 49.5689 23.161 50.1436 23.161H52.3275C52.7585 23.161 52.816 23.2184 52.816 23.6207V33.3046L52.8141 33.3315C52.7859 33.7261 52.756 34.1463 52.6436 34.5115C52.2987 35.8334 51.3792 36.4943 50.0861 36.6954C49.7413 36.7529 49.3677 36.7817 49.0229 36.7817H43.362H37.701C37.27 36.7529 36.839 36.7242 36.4079 36.638ZM15.7765 36.7816H18.1903L32.0121 36.7816C32.4718 36.7816 32.5293 36.7241 32.5293 36.2643V34.7414C32.5293 34.1379 32.5006 34.1092 31.8971 34.1092L18.9949 34.1092H18.5351V33.6494L18.5351 23.7069C18.5351 23.2184 18.5064 23.1896 18.0179 23.1896H15.7765C15.3455 23.1896 15.288 23.2471 15.288 23.6781L15.288 36.2931C15.288 36.7241 15.3455 36.7816 15.7765 36.7816Z" fill="white" style="fill:white;fill-opacity:1;"/>
</svg>
