<svg width="115" height="60" viewBox="0 0 115 60" fill="none" xmlns="http://www.w3.org/2000/svg">
<path d="M57.176 0C57.316 0 57.456 3.35768e-05 57.5959 0.000242872C57.571 0.000315622 57.5461 0.000404041 57.5213 0.000509248C57.4631 0.000338006 57.4049 0.000209295 57.3467 0.000124234C57.2898 4.14114e-05 57.2329 0 57.176 0Z" fill="white" style="fill:white;fill-opacity:1;"/>
<path d="M57.595 59.9998C57.4554 60 57.3157 60 57.176 60C57.2245 60 57.273 60 57.3214 59.9999C57.3881 59.9998 57.4547 59.9997 57.5213 59.9995L57.595 59.9998Z" fill="white" style="fill:white;fill-opacity:1;"/>
<path d="M72.176 30.227C72.176 29.7811 72.2925 29.343 72.5139 28.9559L74.5305 25.4299C74.6723 25.182 75.0305 25.1841 75.1694 25.4337L77.1327 28.9632C77.3455 29.3458 77.4572 29.7763 77.4572 30.2141C77.4572 31.6352 76.3052 32.7873 74.884 32.7873H74.7363C73.3223 32.7873 72.176 31.641 72.176 30.227Z" fill="white" style="fill:white;fill-opacity:1;"/>
<path fill-rule="evenodd" clip-rule="evenodd" d="M114.352 30C114.352 35.959 110.553 41.707 103.683 46.5037H92.0394C94.072 44.2523 95.7007 41.789 96.8499 39.1687H95.2376C93.9974 41.7958 92.2347 44.2633 90.0231 46.5037H74.9825C75.9688 44.2523 76.7591 41.789 77.3168 39.1687H75.8158C75.2312 41.8128 74.4021 44.2782 73.3738 46.5037H43.3254C42.2971 44.2782 41.4681 41.8128 40.8835 39.1687H39.3824C39.9401 41.789 40.7304 44.2523 41.7168 46.5037H25.5025C23.2909 44.2633 21.5282 41.7958 20.2881 39.1687H18.6757C19.825 41.789 21.4537 44.2523 23.4863 46.5037H10.6686C3.79908 41.707 0 35.959 0 30C0 23.5467 4.4555 17.3408 12.4411 12.3227H24.6015C22.5379 14.3879 20.8266 16.653 19.5321 19.0709H21.2107C22.6121 16.6438 24.4713 14.3751 26.7249 12.3227H42.2579C41.2566 14.3879 40.4261 16.653 39.798 19.0709H41.3156C41.9762 16.6286 42.8499 14.3615 43.8975 12.3227H72.8017C73.8493 14.3615 74.7231 16.6286 75.3836 19.0709H76.9013C76.2731 16.653 75.4427 14.3879 74.4413 12.3227H88.8008C91.0543 14.3751 92.9136 16.6438 94.315 19.0709H95.9936C94.6991 16.653 92.9878 14.3879 90.9242 12.3227H101.589L101.524 12.0823C109.753 17.1419 114.352 23.4432 114.352 30ZM66.8949 25.8924C66.8949 24.5151 68.0114 23.3985 69.3888 23.3985H80.2445C81.6218 23.3985 82.7384 24.5151 82.7384 25.8924V32.3472C82.7384 33.7245 81.6218 34.8411 80.2445 34.8411H69.3888C68.0114 34.8411 66.8949 33.7245 66.8949 32.3472V25.8924ZM15.1834 23.3985H17.8973V32.4939H29.3399V34.7677H15.1834V23.3985ZM33.5208 23.3985H30.8068V32.2738C30.8068 33.6512 31.9234 34.7677 33.3007 34.7677H44.4499C45.7057 34.7677 46.7237 33.7497 46.7237 32.4939V23.3985H44.0098V31.6137C44.0098 32.0998 43.6157 32.4939 43.1296 32.4939H34.401C33.9149 32.4939 33.5208 32.0998 33.5208 31.6137V23.3985ZM48.1907 23.3985H50.7579L56.7726 31.687L62.934 23.3985H65.4279V34.7677H62.7139V28.2029L58.0196 34.6944H55.6724L50.9413 28.2763L50.978 34.7677H48.1907V23.3985ZM86.9193 23.3985H84.2054V34.7677H86.9193V26.9927L96.5281 34.7677H99.1687V23.3985H96.5281V31.1736L86.9193 23.3985Z" fill="white" style="fill:white;fill-opacity:1;"/>
<path d="M90.3227 48.2641H100.952C100.005 48.8283 99.0122 49.3765 97.9748 49.9072C91.8193 53.0562 84.2332 55.507 75.7335 56.9784C81.4751 54.9308 86.466 51.9326 90.3227 48.2641Z" fill="white" style="fill:white;fill-opacity:1;"/>
<path d="M88.1388 48.2641H74.1494C71.9452 52.5849 68.9775 55.9758 65.5503 57.9789C73.457 56.8373 80.492 53.994 85.9161 50.0289C86.6915 49.4621 87.433 48.8733 88.1388 48.2641Z" fill="white" style="fill:white;fill-opacity:1;"/>
<path d="M72.492 48.2641H44.2072C44.6118 49.0103 45.0401 49.7238 45.4902 50.4019C48.8532 55.468 53.3174 58.4159 58.0644 58.5296C58.3451 58.5274 58.6252 58.5243 58.9048 58.5201C63.5509 58.3033 67.9099 55.3719 71.209 50.4019C71.6591 49.7238 72.0875 49.0103 72.492 48.2641Z" fill="white" style="fill:white;fill-opacity:1;"/>
<path d="M42.5498 48.2641H27.3868C28.0927 48.8733 28.8341 49.4621 29.6095 50.0289C35.379 54.2464 42.9711 57.1948 51.496 58.1761C47.922 56.2026 44.8281 52.7301 42.5498 48.2641Z" fill="white" style="fill:white;fill-opacity:1;"/>
<path d="M25.203 48.2641H13.4001C14.3471 48.8283 15.3399 49.3765 16.3773 49.9072C23.0625 53.3271 31.435 55.9236 40.8327 57.3363C34.6529 55.2879 29.2908 52.1525 25.203 48.2641Z" fill="white" style="fill:white;fill-opacity:1;"/>
<path d="M98.8725 10.5623C98.5771 10.4044 98.2778 10.2478 97.9748 10.0928C91.8193 6.94383 84.2332 4.49298 75.7335 3.02157C80.8502 4.84632 85.3708 7.42603 89.0237 10.5623H98.8725Z" fill="white" style="fill:white;fill-opacity:1;"/>
<path d="M86.7024 10.5623C86.4443 10.3627 86.1822 10.1656 85.9161 9.9711C80.492 6.00602 73.457 3.16269 65.5503 2.02112C68.6608 3.8391 71.3929 6.80029 73.5191 10.5623H86.7024Z" fill="white" style="fill:white;fill-opacity:1;"/>
<path d="M71.82 10.5623C71.6211 10.2335 71.4174 9.91202 71.209 9.59812C67.9099 4.62813 63.5509 1.69677 58.9049 1.47994C58.6252 1.47575 58.3451 1.47257 58.0644 1.47041C53.3174 1.5841 48.8532 4.53197 45.4902 9.59812C45.2819 9.91202 45.0781 10.2335 44.8793 10.5623H71.82Z" fill="white" style="fill:white;fill-opacity:1;"/>
<path d="M43.1802 10.5623C45.3851 6.66101 48.2415 3.62093 51.496 1.82393C42.9711 2.80518 35.379 5.75357 29.6095 9.9711C29.3434 10.1656 29.0813 10.3627 28.8233 10.5623H43.1802Z" fill="white" style="fill:white;fill-opacity:1;"/>
<path d="M26.502 10.5623C30.4006 7.21508 35.2875 4.50181 40.8327 2.66368C31.435 4.07638 23.0625 6.67287 16.3773 10.0928C16.0742 10.2478 15.775 10.4044 15.4796 10.5623H26.502Z" fill="white" style="fill:white;fill-opacity:1;"/>
</svg>
